<svg xmlns="http://www.w3.org/2000/svg" xmlns:xlink="http://www.w3.org/1999/xlink" width="500" zoomAndPan="magnify" viewBox="0 0 375 374.999991" height="500" preserveAspectRatio="xMidYMid meet" version="1.0"><defs><clipPath id="99522f6942"><path d="M 25.253906 25.253906 L 349.746094 25.253906 L 349.746094 349.746094 L 25.253906 349.746094 Z M 25.253906 25.253906 " clip-rule="nonzero"/></clipPath><clipPath id="f5de102a95"><path d="M 219.1875 317.578125 C 219.1875 296.289062 211 257.929688 202.902344 225.550781 C 219.972656 254.246094 241.21875 287.367188 256.390625 302.535156 C 268.964844 315.101562 289.300781 315.101562 301.867188 302.535156 C 314.433594 289.96875 314.433594 269.625 301.867188 257.058594 C 286.824219 242.007812 253.914062 220.675781 225.304688 203.519531 C 257.675781 211.75 296.121094 220.144531 317.578125 220.144531 C 335.359375 220.144531 349.746094 205.75 349.746094 187.976562 C 349.746094 170.195312 335.359375 155.808594 317.578125 155.808594 C 296.289062 155.808594 257.921875 164 225.550781 172.097656 C 254.246094 155.023438 287.355469 133.777344 302.535156 118.609375 C 315.101562 106.039062 315.101562 85.699219 302.535156 73.128906 C 289.96875 60.5625 269.625 60.5625 257.058594 73.128906 C 242.007812 88.171875 220.675781 121.082031 203.519531 149.691406 C 211.742188 117.324219 220.132812 78.878906 220.132812 57.417969 C 220.132812 39.636719 205.75 25.253906 187.976562 25.253906 C 170.195312 25.253906 155.808594 39.636719 155.808594 57.417969 C 155.808594 78.707031 164 117.078125 172.097656 149.445312 C 155.023438 120.753906 133.777344 87.640625 118.597656 72.460938 C 106.03125 59.894531 85.699219 59.894531 73.128906 72.460938 C 60.554688 85.039062 60.554688 105.371094 73.128906 117.941406 C 88.171875 132.992188 121.082031 154.324219 149.691406 171.480469 C 117.324219 163.257812 78.867188 154.863281 57.417969 154.863281 C 39.636719 154.863281 25.253906 169.25 25.253906 187.023438 C 25.253906 204.804688 39.636719 219.1875 57.417969 219.1875 C 78.707031 219.1875 117.070312 211.007812 149.445312 202.902344 C 120.753906 219.972656 87.640625 241.21875 72.460938 256.398438 C 59.894531 268.964844 59.894531 289.308594 72.460938 301.875 C 85.03125 314.445312 105.371094 314.445312 117.941406 301.875 C 132.992188 286.824219 154.324219 253.914062 171.480469 225.304688 C 163.246094 257.675781 154.855469 296.128906 154.855469 317.578125 C 154.855469 335.359375 169.25 349.746094 187.023438 349.746094 C 204.804688 349.746094 219.1875 335.359375 219.1875 317.578125 Z M 219.1875 317.578125 " clip-rule="nonzero"/></clipPath><clipPath id="1bff0473a8"><path d="M 161.195312 162.171875 L 213.695312 162.171875 L 213.695312 214.671875 L 161.195312 214.671875 Z M 161.195312 162.171875 " clip-rule="nonzero"/></clipPath><clipPath id="6b363d5e16"><path d="M 187.5 162.171875 C 172.972656 162.171875 161.195312 173.945312 161.195312 188.472656 C 161.195312 203 172.972656 214.777344 187.5 214.777344 C 202.027344 214.777344 213.800781 203 213.800781 188.472656 C 213.800781 173.945312 202.027344 162.171875 187.5 162.171875 Z M 187.5 162.171875 " clip-rule="nonzero"/></clipPath><clipPath id="9b137886ca"><path d="M 173.746094 187.5 L 188.472656 187.5 L 188.472656 202.226562 L 173.746094 202.226562 Z M 173.746094 187.5 " clip-rule="nonzero"/></clipPath><clipPath id="8a29aa42bf"><path d="M 181.109375 187.5 C 177.042969 187.5 173.746094 190.796875 173.746094 194.863281 C 173.746094 198.929688 177.042969 202.226562 181.109375 202.226562 C 185.175781 202.226562 188.472656 198.929688 188.472656 194.863281 C 188.472656 190.796875 185.175781 187.5 181.109375 187.5 Z M 181.109375 187.5 " clip-rule="nonzero"/></clipPath><clipPath id="114cb1ca6a"><path d="M 0.746094 0.5 L 15.472656 0.5 L 15.472656 15.226562 L 0.746094 15.226562 Z M 0.746094 0.5 " clip-rule="nonzero"/></clipPath><clipPath id="3a1abfbf16"><path d="M 8.109375 0.5 C 4.042969 0.5 0.746094 3.796875 0.746094 7.863281 C 0.746094 11.929688 4.042969 15.226562 8.109375 15.226562 C 12.175781 15.226562 15.472656 11.929688 15.472656 7.863281 C 15.472656 3.796875 12.175781 0.5 8.109375 0.5 Z M 8.109375 0.5 " clip-rule="nonzero"/></clipPath><clipPath id="3910cbc13f"><rect x="0" width="16" y="0" height="16"/></clipPath></defs><rect x="-37.5" width="450" fill="#ffffff" y="-37.499999" height="449.999989" fill-opacity="1"/><rect x="-37.5" width="450" fill="#000000" y="-37.499999" height="449.999989" fill-opacity="1"/><g clip-path="url(#99522f6942)"><g clip-path="url(#f5de102a95)"><path stroke-linecap="butt" transform="matrix(0, 0.75, -0.75, 0, 349.745168, 25.252996)" fill="none" stroke-linejoin="miter" d="M 389.766864 174.076902 C 361.381445 174.076902 310.235609 184.993569 267.063731 195.790445 C 305.32415 173.030027 349.485611 144.7019 369.709571 124.472732 C 386.46478 107.707106 386.46478 80.592521 369.709571 63.837311 C 352.954361 47.082102 325.82936 47.082102 309.07415 63.837311 C 289.006441 83.894604 260.56373 127.774816 237.688729 165.920651 C 248.662688 122.75919 259.855397 71.49877 259.855397 42.889393 C 259.855397 19.181059 240.662687 -0.00123442 216.964769 -0.00123442 C 193.256434 -0.00123442 174.074141 19.181059 174.074141 42.889393 C 174.074141 71.274812 184.996017 122.431065 195.792893 165.592526 C 173.027266 127.332107 144.699139 83.186271 124.47518 62.946686 C 107.714762 46.191477 80.594969 46.191477 63.834551 62.946686 C 47.079341 79.701896 47.079341 106.826898 63.834551 123.582107 C 83.891844 143.649817 127.772055 172.092527 165.917891 194.967528 C 122.761638 184.003986 71.501218 172.816485 42.886633 172.816485 C 19.178298 172.816485 0.00121321 191.99357 0.00121321 215.691488 C 0.00121321 239.399823 19.178298 258.582116 42.886633 258.582116 C 71.272051 258.582116 122.433513 247.66024 165.589766 236.863364 C 127.334555 259.628991 83.18351 287.957118 62.943926 308.196702 C 46.188716 324.951912 46.188716 352.061289 62.943926 368.821706 C 79.71476 385.587333 106.824137 385.587333 123.584555 368.821706 C 143.652264 348.764413 172.094975 304.884202 194.969976 266.738366 C 184.006434 309.894619 172.813725 361.170664 172.813725 389.769625 C 172.813725 413.477959 191.996017 432.655044 215.693936 432.655044 C 239.402271 432.655044 258.579355 413.477959 258.579355 389.769625 C 258.579355 361.384206 247.673104 310.233161 236.865812 267.066491 C 259.62623 305.321702 287.954357 349.472747 308.193942 369.712332 C 324.949151 386.467541 352.074153 386.467541 368.829362 369.712332 C 385.58978 352.951914 385.58978 325.83212 368.829362 309.071703 C 348.761653 289.003993 304.881442 260.561283 266.735606 237.686281 C 309.897067 248.665449 361.167904 259.852949 389.766864 259.852949 C 413.475199 259.852949 432.657492 240.66024 432.657492 216.962321 C 432.657492 193.253987 413.475199 174.076902 389.766864 174.076902 Z M 389.766864 174.076902 " stroke="#ffffff" stroke-width="20" stroke-opacity="1" stroke-miterlimit="4"/></g></g><g clip-path="url(#1bff0473a8)"><g clip-path="url(#6b363d5e16)"><path stroke-linecap="butt" transform="matrix(0.75, 0, 0, 0.75, 161.196995, 162.171083)" fill="none" stroke-linejoin="miter" d="M 35.070676 0.00105607 C 15.700883 0.00105607 -0.00224295 15.698974 -0.00224295 35.068767 C -0.00224295 54.43856 15.700883 70.141686 35.070676 70.141686 C 54.440469 70.141686 70.138387 54.43856 70.138387 35.068767 C 70.138387 15.698974 54.440469 0.00105607 35.070676 0.00105607 Z M 35.070676 0.00105607 " stroke="#ffffff" stroke-width="20" stroke-opacity="1" stroke-miterlimit="4"/></g></g><g clip-path="url(#9b137886ca)"><g clip-path="url(#8a29aa42bf)"><g transform="matrix(1, 0, 0, 1, 173, 187)"><g clip-path="url(#3910cbc13f)"><g clip-path="url(#114cb1ca6a)"><g clip-path="url(#3a1abfbf16)"><path fill="#ffffff" d="M 0.746094 0.5 L 15.472656 0.5 L 15.472656 15.226562 L 0.746094 15.226562 Z M 0.746094 0.5 " fill-opacity="1" fill-rule="nonzero"/></g></g></g></g></g></g></svg>